<svg id="Layer_1" data-name="Layer 1" xmlns="http://www.w3.org/2000/svg" viewBox="0 0 547.48 99.84"><defs><style>.cls-1{fill:#146879;}.cls-2{fill:#f9a127;}</style></defs><title>flowds logo1</title><path class="cls-1" d="M27,332.88V237.51H77.42v20.88H50.28v17.42H74V296.7H50.28v36.18H27Z" transform="translate(-27 -235.78)"/><path class="cls-1" d="M91.25,332.88V237.51h23.28V312h28.6v20.88H91.25Z" transform="translate(-27 -235.78)"/><path class="cls-1" d="M248,237.51h24.94l14.37,67.16,16.82-67.16h21.09l16.69,67.15,14.43-67.15h24.94l-24.81,95.37H330l-15.58-60.77-15.64,60.77h-26Z" transform="translate(-27 -235.78)"/><path class="cls-1" d="M390.73,332.88V237.51h28.07q23.14,0,36.71,12.62t13.57,35q0,22.41-13.57,35.07t-36.71,12.65H390.73Zm23.28-20h4.79q12,0,19-7.13t7-20.57q0-13.45-7-20.54t-19-7.09H414v55.33Z" transform="translate(-27 -235.78)"/><path class="cls-1" d="M475,311.93l19.49-9.7a21.17,21.17,0,0,0,5.92,7.57,13,13,0,0,0,8.38,3.05q4.12,0,6.28-1.73a5.93,5.93,0,0,0,2.16-4.92,6.39,6.39,0,0,0-2.19-4.65,23.21,23.21,0,0,0-5.65-3.89q-3.46-1.76-7.68-3.65a71,71,0,0,1-8.45-4.52,49.65,49.65,0,0,1-7.68-5.85,24.41,24.41,0,0,1-5.65-8.27,27.87,27.87,0,0,1-2.19-11.23q0-12.86,8.55-20.62T509,235.78a34.7,34.7,0,0,1,10.82,1.63,28.83,28.83,0,0,1,8.21,4,31.47,31.47,0,0,1,5.81,5.6,35.22,35.22,0,0,1,3.91,5.77,36.5,36.5,0,0,1,2.17,5.14l-19.46,8.84a36.88,36.88,0,0,0-1.73-3.32,19.63,19.63,0,0,0-2.2-2.89,9.22,9.22,0,0,0-3.43-2.39,12.17,12.17,0,0,0-4.63-.83,8,8,0,0,0-5.42,1.83,5.86,5.86,0,0,0-2.1,4.62,6.55,6.55,0,0,0,2.2,4.75,22.49,22.49,0,0,0,5.69,3.92q3.49,1.76,7.76,3.59a82.18,82.18,0,0,1,8.54,4.28,47.73,47.73,0,0,1,7.79,5.55,23.33,23.33,0,0,1,5.72,7.87,25.22,25.22,0,0,1,2.21,10.69q0,13.43-9,21.84t-24.47,8.41A36.52,36.52,0,0,1,496,333a30.28,30.28,0,0,1-8.61-4.19,34.35,34.35,0,0,1-6.12-5.79,35.35,35.35,0,0,1-4.09-5.89A34.77,34.77,0,0,1,475,311.93Z" transform="translate(-27 -235.78)"/><path class="cls-1" d="M548.88,321.17a13.67,13.67,0,0,1,3.7-9.64,11.86,11.86,0,0,1,9-4,12.06,12.06,0,0,1,9.1,4,13.55,13.55,0,0,1,3.77,9.64,13.38,13.38,0,0,1-3.77,9.51,12.3,12.3,0,0,1-18.11,0A13.4,13.4,0,0,1,548.88,321.17Z" transform="translate(-27 -235.78)"/><path class="cls-2" d="M226.93,299.68c4-9.69,4-19.3-.69-28.7a31.92,31.92,0,0,0-16.82-15.61,33.13,33.13,0,0,0-40.58,12.68c-8.51,13.38-5.49,29.42,1.57,37.48,5.46-20.18,18.21-32.85,38.43-37.83-12.33,12.89-6.59,29.23,2.45,35.54a23,23,0,0,0,34.13-9.62l0.47,0.13c-1,3.4-1.7,6.92-3.05,10.17-7.52,18-21,28.65-40.34,31.23-14.05,1.88-26.77-2.08-37.68-11.24a49.56,49.56,0,0,1,26.7-87.23c14.1-1.4,26.75,2.45,37.53,11.8,9.83,8.52,15.32,19.37,16.9,32.25,0.87,7.11-4.57,15.4-12.08,18a60.06,60.06,0,0,1-6.62,1.52Z" transform="translate(-27 -235.78)"/></svg>